Coordinates
version=1
nRows=21
nColumns=38
inDegrees=no

Units are S.I. units (second, meters, Newtons, ...)
If the header above contains a line with 'inDegrees', this indicates whether rotational values are in degrees (yes) or radians (no).

endheader
time	pelvis_tilt	pelvis_list	pelvis_rotation	pelvis_tx	pelvis_ty	pelvis_tz	hip_flexion_r	hip_adduction_r	hip_rotation_r	knee_angle_r	ankle_angle_r	subtalar_angle_r	mtp_angle_r	hip_flexion_l	hip_adduction_l	hip_rotation_l	knee_angle_l	ankle_angle_l	subtalar_angle_l	mtp_angle_l	lumbar_extension	lumbar_bending	lumbar_rotation	arm_flex_r	arm_add_r	arm_rot_r	elbow_flex_r	pro_sup_r	wrist_flex_r	wrist_dev_r	arm_flex_l	arm_add_l	arm_rot_l	elbow_flex_l	pro_sup_l	wrist_flex_l	wrist_dev_l
0.641667	-0.0365899	0.00265188	-0.118772	1.13587	1.0113	-0.334961	0.523467	0.0638908	-0.120398	-0.267467	-0.220686	0.0450971	0.000122637	-0.134608	0.173366	-0.0315162	-1.34546	-0.395398	0.0502807	0.00022959	-0.213289	0.071395	-0.103224	-0.815132	-0.0791366	-0.453579	1.341	1.15974	0.0272516	-0.05636	-0.524268	-0.236096	0.121436	2.29956	1.67879	0.0475329	-0.0238325
0.65	-0.0203915	-0.0055841	-0.120152	1.13628	1.00688	-0.334109	0.505232	0.0754059	-0.0867041	-0.318959	-0.193436	0.0450971	0.000122637	-0.126459	0.151043	-0.0618867	-1.44522	-0.360697	0.0502807	0.00022959	-0.23195	0.0787873	-0.0943654	-0.8008	-0.0850038	-0.437262	1.33779	1.17481	0.0272516	-0.05636	-0.547423	-0.223159	0.100318	2.24592	1.70621	0.0475329	-0.0238325
0.658333	-0.00734397	-0.0121774	-0.12065	1.13632	1.00162	-0.333337	0.491221	0.0867151	-0.056733	-0.376501	-0.152611	0.0450971	0.000122637	-0.111408	0.130865	-0.0874667	-1.5435	-0.326831	0.0502807	0.00022959	-0.247371	0.084552	-0.0853651	-0.783104	-0.0907689	-0.418679	1.33408	1.19003	0.0272516	-0.05636	-0.568423	-0.211745	0.0807408	2.19039	1.72658	0.0475329	-0.0238325
0.666667	0.00255831	-0.0171214	-0.120291	1.13599	0.995549	-0.332632	0.481356	0.0977684	-0.0305856	-0.439819	-0.0987052	0.0450971	0.000122637	-0.0894122	0.11286	-0.108279	-1.64023	-0.293911	0.0502807	0.00022959	-0.259573	0.0886734	-0.0761788	-0.762033	-0.0964112	-0.397859	1.32993	1.20531	0.0272516	-0.05636	-0.587241	-0.201868	0.0627221	2.13303	1.73986	0.0475329	-0.0238325
0.675	0.00935133	-0.0204358	-0.119152	1.13526	0.988809	-0.331991	0.475341	0.108435	-0.0084693	-0.508003	-0.0332966	0.0450971	0.000122637	-0.0603825	0.0970659	-0.124411	-1.73514	-0.262207	0.0502807	0.00022959	-0.268647	0.091134	-0.0666658	-0.737582	-0.101883	-0.374894	1.32546	1.22038	0.0272516	-0.05636	-0.603815	-0.19356	0.0463002	2.07401	1.74608	0.0475329	-0.0238325
0.683333	0.013143	-0.022223	-0.117384	1.13405	0.981612	-0.331416	0.472494	0.118527	0.0094449	-0.579242	0.0406557	0.0450971	0.000122637	-0.0242442	0.0834539	-0.136061	-1.82768	-0.232108	0.0502807	0.00022959	-0.274799	0.0919656	-0.0565525	-0.709783	-0.107118	-0.349997	1.32101	1.23477	0.0272516	-0.05636	-0.618061	-0.18685	0.0315167	2.01371	1.74555	0.0475329	-0.0238325
0.691667	0.014168	-0.0226939	-0.115208	1.13237	0.974228	-0.330902	0.471642	0.127824	0.0232047	-0.650833	0.119068	0.0450971	0.000122637	0.01894	0.0718723	-0.143566	-1.91695	-0.203969	0.0502807	0.00022959	-0.278388	0.0912791	-0.0454466	-0.678769	-0.112046	-0.323539	1.31716	1.24787	0.0272516	-0.05636	-0.629931	-0.181737	0.0183658	1.95277	1.73919	0.0475329	-0.0238325
0.7	0.01282	-0.0221548	-0.112892	1.13026	0.966978	-0.330438	0.47115	0.136097	0.0332199	-0.719478	0.197437	0.0450971	0.000122637	0.0688536	0.0620317	-0.147405	-2.00167	-0.177971	0.0502807	0.00022959	-0.279909	0.0892545	-0.0328968	-0.644849	-0.116611	-0.296099	1.31476	1.25909	0.0272516	-0.05636	-0.639495	-0.178161	0.00672884	1.89213	1.72873	0.0475329	-0.0238325
0.708333	0.00962832	-0.0209468	-0.110708	1.12778	0.960205	-0.330001	0.469068	0.143104	0.0402717	-0.781759	0.271661	0.0450971	0.000122637	0.124838	0.0535605	-0.148176	-2.08021	-0.154035	0.0502807	0.00022959	-0.279943	0.0860889	-0.0184878	-0.608588	-0.120773	-0.268472	1.31494	1.26804	0.0272516	-0.05636	-0.647027	-0.175987	-0.00367231	1.83304	1.71658	0.0475329	-0.0238325
0.716667	0.00520578	-0.0193371	-0.108885	1.12501	0.954228	-0.329564	0.463387	0.14855	0.0453789	-0.834637	0.338621	0.0450971	0.000122637	0.18589	0.0461126	-0.14655	-2.1508	-0.131851	0.0502807	0.00022959	-0.279059	0.081929	-0.0019445	-0.570836	-0.124503	-0.241654	1.31904	1.27479	0.0272516	-0.05636	-0.653047	-0.175017	-0.0132862	1.77703	1.70537	0.0475329	-0.0238325
0.725	0.000162051	-0.0174318	-0.107575	1.12204	0.949302	-0.329105	0.45234	0.152044	0.0495821	-0.875825	0.396355	0.0450971	0.000122637	0.250744	0.0394817	-0.143228	-2.21161	-0.111002	0.0502807	0.00022959	-0.277701	0.0768038	0.0167835	-0.532707	-0.127779	-0.216753	1.32843	1.27997	0.0272516	-0.05636	-0.658318	-0.175012	-0.0226932	1.72581	1.69743	0.0475329	-0.0238325
0.733333	-0.00500053	-0.0151238	-0.106829	1.11901	0.945604	-0.328624	0.434682	0.153085	0.0537208	-0.903989	0.443851	0.0450971	0.000122637	0.318006	0.0336694	-0.138914	-2.26099	-0.091126	0.0502807	0.00022959	-0.27609	0.0705969	0.0374824	-0.495472	-0.130591	-0.194856	1.34434	1.28476	0.0272516	-0.05636	-0.663765	-0.175724	-0.0325215	1.68111	1.69429	0.0475329	-0.0238325
0.741667	-0.00994011	-0.0121025	-0.106589	1.11609	0.943236	-0.328142	0.409834	0.151094	0.0582674	-0.918744	0.480653	0.0450971	0.000122637	0.38628	0.0288719	-0.134284	-2.2976	-0.0720634	0.0502807	0.00022959	-0.274192	0.0630757	0.0596858	-0.460418	-0.132956	-0.176856	1.36761	1.29073	0.0272516	-0.05636	-0.670348	-0.176924	-0.0433364	1.64444	1.6965	0.0475329	-0.0238325
0.75	-0.0145105	-0.0079353	-0.106699	1.11345	0.942243	-0.327688	0.377913	0.145496	0.0632547	-0.920514	0.506467	0.0450971	0.000122637	0.454259	0.025399	-0.129974	-2.32056	-0.0539253	0.0502807	0.00022959	-0.271756	0.053952	0.0827292	-0.428678	-0.134933	-0.163289	1.39855	1.29943	0.0272516	-0.05636	-0.678915	-0.178427	-0.0555314	1.61694	1.70359	0.0475329	-0.0238325
0.758333	-0.0187428	-0.00217956	-0.106928	1.11124	0.942617	-0.327287	0.339611	0.135822	0.0682952	-0.910302	0.520899	0.0450971	0.000122637	0.520765	0.023566	-0.126547	-2.32946	-0.0370672	0.0502807	0.00022959	-0.268402	0.0429588	0.10583	-0.401113	-0.136637	-0.154224	1.43688	1.31204	0.0272516	-0.05636	-0.690089	-0.180108	-0.069253	1.5992	1.71423	0.0475329	-0.0238325
0.766667	-0.022789	0.00552549	-0.10699	1.10956	0.944312	-0.326955	0.296023	0.121803	0.0726784	-0.889455	0.523349	0.0450971	0.000122637	0.584753	0.0236121	-0.124459	-2.32436	-0.0219919	0.0502807	0.00022959	-0.263745	0.0299178	0.128175	-0.37823	-0.138221	-0.149252	1.48173	1.32901	0.0272516	-0.05636	-0.704198	-0.181907	-0.0843721	1.59116	1.72646	0.0475329	-0.0238325
0.775	-0.0268602	0.015403	-0.106581	1.10847	0.947238	-0.326701	0.248466	0.103436	0.0755176	-0.859489	0.513076	0.0450971	0.000122637	0.645319	0.0256722	-0.124024	-2.30575	-0.00922246	0.0502807	0.00022959	-0.25748	0.0147762	0.148996	-0.360181	-0.139846	-0.147559	1.53181	1.34988	0.0272516	-0.05636	-0.721275	-0.183821	-0.100517	1.59222	1.73815	0.0475329	-0.0238325
0.783333	-0.0311899	0.0275144	-0.105407	1.10799	0.95127	-0.326537	0.198367	0.0809947	0.0759233	-0.822015	0.489374	0.0450971	0.000122637	0.701734	0.0297993	-0.125394	-2.27442	0.000806481	0.0502807	0.00022959	-0.249428	-0.00239302	0.16764	-0.346813	-0.141652	-0.148077	1.58557	1.37337	0.0272516	-0.05636	-0.741097	-0.185882	-0.117155	1.60126	1.74738	0.0475329	-0.0238325
0.791667	-0.0360233	0.0417609	-0.103217	1.10809	0.956245	-0.326477	0.147204	0.0550146	0.0731822	-0.77874	0.451842	0.0450971	0.000122637	0.753475	0.0359999	-0.128559	-2.23141	0.00781263	0.0502807	0.00022959	-0.239532	-0.0214026	0.183618	-0.337752	-0.143722	-0.149663	1.64133	1.39766	0.0272516	-0.05636	-0.763261	-0.188126	-0.133698	1.61684	1.75283	0.0475329	-0.0238325
0.8	-0.0416123	0.0578898	-0.0998244	1.10872	0.961976	-0.326537	0.0964702	0.0262762	0.0669232	-0.731533	0.400695	0.0450971	0.000122637	0.80025	0.0442397	-0.13335	-2.17784	0.0116879	0.0502807	0.00022959	-0.227826	-0.0419559	0.196637	-0.332493	-0.146071	-0.151271	1.69751	1.42075	0.0272516	-0.05636	-0.787255	-0.190554	-0.149612	1.63742	1.75399	0.0475329	-0.0238325
0.808333	-0.0481987	0.0754885	-0.0951283	1.10978	0.96826	-0.326729	0.0476442	-0.00420975	0.057256	-0.682482	0.337034	0.0450971	0.000122637	0.84197	0.0543996	-0.139453	-2.11487	0.0124962	0.0502807	0.00022959	-0.214413	-0.0636356	0.206629	-0.330484	-0.14865	-0.152094	1.75265	1.44095	0.0272516	-0.05636	-0.812521	-0.193116	-0.164492	1.66147	1.75098	0.0475329	-0.0238325
